<svg xmlns="http://www.w3.org/2000/svg" xmlns:xlink="http://www.w3.org/1999/xlink" id="Layer_1" x="0" y="0" version="1.1" viewBox="0 0 1151.2 240" xml:space="preserve"><style>.st0{fill:#1d1d1b}</style><path d="M716.3 177.6c-14.5 0-29.6-4.9-38.8-14.8-1.5-1.7-2.8-3.3-3.9-5-5.5-8.7 1.6-19.3 13-19.3h2.5c5.7 0 10.5 3 13.2 7.3 2.7 4.3 6.9 7.1 14.1 7.1 7.5 0 14-4.5 14-11.4 0-2-.5-4.1-1.9-5.9-4.2-5.1-20.8-8.9-27.3-11-17.3-5.3-29-15.6-29-32.3 0-20.5 20.8-34.9 43.4-34.9 13.5 0 25.5 5.2 33.3 13.6 7.8 8.4.6 20.9-11.8 20.9-4.9 0-9.4-2.2-12.3-5.7-2.1-2.6-5.3-4-9.7-4-6.5 0-11.9 4.1-11.9 9.7 0 5.9 5.4 7.5 10.7 9.3 3.7 1.2 7.5 2.2 11.2 3.2 20.1 5.5 36.2 12.8 36.2 33.7.3 22.5-19.3 39.5-45 39.5M67.2 53.5V167c0 3.8-3.4 6.8-7.5 6.8H43.4c-4.2 0-7.5-3.1-7.5-6.8V53.5c0-3.8-3.4-6.8-7.5-6.8H7.5c-4.2 0-7.5-3.1-7.5-6.8v-13c0-3.8 3.4-6.8 7.5-6.8h88.3c4.2 0 7.5 3.1 7.5 6.8v12.9c0 3.8-3.4 6.8-7.5 6.8H74.7c-4.1.1-7.5 3.1-7.5 6.9M652.5 174.2h-5.2c-5.8 0-10.4-4.9-10.4-10.9v-3.1c-9.4 10.6-22.2 17.7-36.8 17.7-34.6 0-63.5-27.1-63.5-60.2 0-33.2 28.4-60.6 63.5-60.6S663 82.6 663 117.9v45.3c-.1 6.1-4.8 11-10.5 11M600 82c-20.1 0-34.9 17.3-34.9 35.7 0 19 14.3 35.3 34.9 35.3 21.2 0 34.4-15.7 34.4-35.1.1-18.1-14.3-35.9-34.4-35.9M533.5 167.3c0 3.6-2.9 6.6-6.5 6.6h-9.3c-23.5 0-40.9-16.6-40.9-41.5V27c0-3.6 2.9-6.6 6.5-6.6h17c3.6 0 6.5 2.9 6.5 6.6v25.2c0 3.6 2.9 6.6 6.5 6.6H527c3.6 0 6.5 2.9 6.5 6.6v11.3c0 3.6-2.9 6.6-6.5 6.6h-13.6c-3.6 0-6.5 2.9-6.5 6.6v42.6c0 13.1 6.6 14.9 19.2 15.1 4.1 0 7.5 3.4 7.5 7.5v12.2zM827.6 167.3c0 3.6-2.9 6.6-6.5 6.6h-9.3c-23.5 0-40.9-16.6-40.9-41.5V27c0-3.6 2.9-6.6 6.5-6.6h17c3.6 0 6.5 2.9 6.5 6.6v25.2c0 3.6 2.9 6.6 6.5 6.6H821c3.6 0 6.5 2.9 6.5 6.6v11.3c0 3.6-2.9 6.6-6.5 6.6h-13.6c-3.6 0-6.5 2.9-6.5 6.6v42.6c0 13.1 6.6 14.9 19.2 15.1 4.1 0 7.5 3.4 7.5 7.5v12.2zM943.6 177.5c-39.5 0-70.4-32.9-64.2-70.2 4.6-27.3 30.3-48.7 60.3-50.1 19.9-1 37.8 5.9 50.4 18.2 8.9 8.7 2.5 23-10.4 23-4.6 0-8.8-2-11.6-5.4-5.9-7.2-13.5-11.1-24.7-11.1-21.8 0-35.5 16.1-35.5 35.4 0 19.5 15 35.4 36.8 35.4 9.6 0 17.4-4.3 23.3-10.8 2.8-3.1 6.8-4.9 11.2-4.9 13 0 19.4 14.4 10.4 23-11.7 11.2-27.6 17.5-46 17.5M376 128.3c-1.8 0-3.2 1.7-2.6 3.4 5 12.7 18 21.3 32.2 21.3 10.3 0 19.5-3.6 25.4-11.5 1.3-1.7 3.3-2.9 5.5-2.9h16.1c5 0 8.4 5.2 6 9.4-10.4 18-31.4 30-53 30-35.5 0-62.6-26.3-62.6-60 0-33.8 26.5-60.8 62.4-60.8 34.6 0 61.1 25.7 61.1 58.5 0 2.8-.3 5.8-.6 8.8-.3 3.4-5 3.9-5 3.9H376zm.6-22.4h57c1.8 0 3.3-1.7 2.7-3.4-4.4-12.9-15.5-20.5-30.7-20.5s-26.4 7.7-31.8 20.2c-.6 1.8.8 3.7 2.8 3.7M127.4 17.6c9.9 0 17.3 6.8 17.3 15.9 0 8.5-7.4 15.3-17.3 15.3-9.2 0-16.7-6.8-16.7-15.3.1-9.1 7.5-15.9 16.7-15.9m-14.6 141.1V74.1c0-8.4 6.7-15.1 15-15.1s15 6.8 15 15.1v84.6c0 8.4-6.7 15.1-15 15.1-8.3.1-15-6.7-15-15.1M852.6 17.6c9.9 0 17.3 6.8 17.3 15.9 0 8.5-7.4 15.3-17.3 15.3-9.2 0-16.7-6.8-16.7-15.3 0-9.1 7.4-15.9 16.7-15.9m-14.7 141.1V74.1c0-8.4 6.7-15.1 15-15.1s15 6.8 15 15.1v84.6c0 8.4-6.7 15.1-15 15.1-8.3.1-15-6.7-15-15.1M304.2 104.1c0-15.7-17-27.7-34.2-19.5-7.6 3.6-12 11.4-12 19.5v58.8c0 6.1-5.2 11-11.6 11h-3.8c-7.2 0-13.1-5.6-13.1-12.5v-57.3c0-15.7-17-27.7-34.2-19.5-7.6 3.6-12 11.4-12 19.5v56.5c0 7.3-6.2 13.2-13.9 13.2-8 0-14.5-6.2-14.5-13.8v-53.9c0-28.9 23.3-49 51.5-49 14.5 0 27.8 5.5 37.2 14.6 9.4-9.1 22.7-14.6 37.4-14.6 28.2 0 51.5 20.1 51.5 49v53.8c0 7.7-6.6 14-14.7 14-7.6 0-13.7-5.9-13.7-13.1v-56.7z" class="st0"/><defs><path id="SVGID_1_" d="M1084.6.1c-1 .3-1.5 1.3-1.3 2.2.2.8.9 1.3 1.6 1.4 32.8 1.2 64.2 31.3 59.5 67.6-2.2 17.4-9.9 31.1-27.7 40.4-6.1 3.2-18.5 6.3-31 3.6-6.5-1.4-13.1-4.5-18.7-9.9-7.8-7.5-12.3-17.4-12.7-28.2-.2-6.3 1.3-12.7 4.5-18.1 6.1-10.1 16.5-16.1 27.9-16.4 15.1-.4 27.8 11.6 28.2 26.7.3 12.6-9.7 23.1-22.3 23.5-5.2.1-10.1-1.8-13.8-5.3-3.8-3.6-5.9-8.4-6-13.5-.1-2.8.6-5.5 1.8-8 .4-.8.1-1.7-.6-2.2-.8-.6-2-.4-2.6.4 0 0 0 .1-.1.1-2.6 3.5-3.9 7.8-3.8 12.2.2 7.3 3.2 14.2 8.6 19.2 5.3 5.1 12.3 7.7 19.6 7.6 11.5-.3 21.7-5.8 28.3-14.3 5.1-6.5 8.1-14.8 7.9-23.8-.3-13.2-5.8-25.4-15.4-34.5-21.4-20.5-51.1-11.6-51.1-11.6-8.8 2.3-16.9 6.5-24 12.1-16.5 14.2-22.3 35.5-18.6 55.1 3.5 18.5 15.4 35.6 34.9 43.7 0 0 21.2 8.9 43.4 2.8 15.1-4.1 27-12.6 35.3-23.1 11.3-14.2 16.2-32.3 14.5-48.5-2.8-25.7-17.5-43.6-35.6-53.1-9.5-5-20-7.6-30.2-7.8-.2-.4-.4-.4-.5-.3"/></defs><clipPath id="SVGID_00000036217538550631919030000008447322852608794516_"><use overflow="visible" xlink:href="#SVGID_1_"/></clipPath><linearGradient id="SVGID_00000083089508116372376620000008821155193515601585_" x1="216.429" x2="219.659" y1="1038.771" y2="1038.771" gradientTransform="scale(41.1492 -41.1492) rotate(45 1378.16 287.194)" gradientUnits="userSpaceOnUse"><stop offset="0" stop-color="#e5007e"/><stop offset=".15" stop-color="#e5007e"/><stop offset=".5" stop-color="#995ac4"/><stop offset=".551" stop-color="#8a5dc4"/><stop offset=".648" stop-color="#6265c6"/><stop offset=".782" stop-color="#2373c8"/><stop offset=".85" stop-color="#007ac9"/><stop offset="1" stop-color="#007ac9"/></linearGradient><path fill="url(#SVGID_00000083089508116372376620000008821155193515601585_)" d="M949.8 69.3l136.1-136.1 136 136.1-136 136.1z" clip-path="url(#SVGID_00000036217538550631919030000008447322852608794516_)"/><g><path d="M57 236.1l-1.4-3.8H43.4l-1.4 3.8c-.6 1.5-1 2.5-1.4 3-.4.5-1 .8-1.9.8-.8 0-1.4-.3-2-.8-.6-.6-.9-1.2-.9-1.9 0-.4.1-.8.2-1.3.1-.4.4-1 .7-1.8l7.7-19.5c.2-.6.5-1.2.8-2s.6-1.4 1-2c.3-.5.8-.9 1.4-1.3.6-.3 1.3-.5 2.1-.5s1.6.2 2.1.5c.6.3 1 .7 1.4 1.2.3.5.6 1 .9 1.6.2.6.5 1.4.9 2.3l7.8 19.3c.6 1.5.9 2.5.9 3.2 0 .7-.3 1.3-.9 1.9-.6.6-1.3.9-2.1.9-.5 0-.9-.1-1.2-.3-.3-.2-.6-.4-.9-.7-.2-.3-.5-.7-.7-1.3-.5-.3-.7-.8-.9-1.3zm-12-8.3h9l-4.5-12.4-4.5 12.4zM164.7 230c0 1-.2 2-.7 3.1-.5 1.1-1.2 2.2-2.2 3.3-1 1.1-2.3 1.9-3.9 2.6-1.6.7-3.4 1-5.5 1-1.6 0-3-.1-4.3-.5-1.3-.3-2.5-.8-3.5-1.4-1.1-.6-2-1.5-2.9-2.5-.8-.9-1.5-2-2-3.2-.6-1.2-1-2.4-1.3-3.7-.3-1.3-.4-2.7-.4-4.2 0-2.4.3-4.6 1.1-6.5.7-1.9 1.7-3.5 3-4.9s2.8-2.4 4.6-3.1c1.8-.7 3.6-1.1 5.6-1.1 2.4 0 4.6.5 6.5 1.5 1.9 1 3.3 2.2 4.4 3.6 1 1.4 1.5 2.8 1.5 4 0 .7-.2 1.3-.7 1.8-.5.5-1.1.8-1.8.8-.8 0-1.4-.2-1.7-.6-.4-.4-.8-1-1.3-1.9-.8-1.5-1.7-2.6-2.8-3.3-1.1-.7-2.4-1.1-4-1.1-2.5 0-4.5.9-6 2.8s-2.2 4.6-2.2 8.1c0 2.3.3 4.3 1 5.8s1.6 2.7 2.8 3.5c1.2.8 2.6 1.1 4.2 1.1 1.7 0 3.2-.4 4.4-1.3 1.2-.9 2.1-2.1 2.7-3.8.3-.8.6-1.4 1-1.9s1-.7 1.8-.7c.7 0 1.3.3 1.9.8.5.6.7 1.2.7 1.9zM201.6 236.3v-23.6c0-1.2.3-2.1.8-2.8.6-.6 1.3-.9 2.2-.9.9 0 1.7.3 2.2.9.6.6.8 1.5.8 2.8v23.6c0 1.2-.3 2.2-.8 2.8-.6.6-1.3.9-2.2.9-.9 0-1.6-.3-2.2-.9-.5-.6-.8-1.6-.8-2.8zM265 214.5h-6.6v21.8c0 1.3-.3 2.2-.8 2.8-.6.6-1.3.9-2.2.9-.9 0-1.6-.3-2.2-.9-.6-.6-.8-1.5-.8-2.8v-21.8h-6.6c-1 0-1.8-.2-2.3-.7-.5-.5-.8-1.1-.8-1.8 0-.8.3-1.4.8-1.8.5-.4 1.3-.7 2.3-.7H265c1 0 1.8.2 2.3.7.5.5.8 1.1.8 1.8s-.3 1.4-.8 1.8c-.5.5-1.3.7-2.3.7zM318.6 236.1l-1.4-3.8H305l-1.4 3.8c-.6 1.5-1 2.5-1.4 3-.4.5-1 .8-1.9.8-.8 0-1.4-.3-2-.8-.6-.6-.9-1.2-.9-1.9 0-.4.1-.8.2-1.3.1-.4.4-1 .7-1.8l7.7-19.5c.2-.6.5-1.2.8-2s.6-1.4 1-2c.3-.5.8-.9 1.4-1.3.6-.3 1.3-.5 2.1-.5s1.6.2 2.1.5c.6.3 1 .7 1.4 1.2.3.5.6 1 .9 1.6.2.6.5 1.4.9 2.3l7.8 19.3c.6 1.5.9 2.5.9 3.2 0 .7-.3 1.3-.9 1.9-.6.6-1.3.9-2.1.9-.5 0-.9-.1-1.2-.3-.3-.2-.6-.4-.9-.7-.2-.3-.5-.7-.7-1.3-.5-.3-.7-.8-.9-1.3zm-12-8.3h8.9l-4.5-12.4-4.4 12.4zM376.6 214.5H370v21.8c0 1.3-.3 2.2-.8 2.8-.6.6-1.3.9-2.2.9-.9 0-1.6-.3-2.2-.9-.6-.6-.8-1.5-.8-2.8v-21.8h-6.6c-1 0-1.8-.2-2.3-.7-.5-.5-.8-1.1-.8-1.8 0-.8.3-1.4.8-1.8.5-.4 1.3-.7 2.3-.7h19.3c1 0 1.8.2 2.3.7.5.5.8 1.1.8 1.8s-.3 1.4-.8 1.8c-.6.5-1.4.7-2.4.7zM414.6 236.3v-23.6c0-1.2.3-2.1.8-2.8.6-.6 1.3-.9 2.2-.9.9 0 1.7.3 2.2.9.6.6.8 1.5.8 2.8v23.6c0 1.2-.3 2.2-.8 2.8-.6.6-1.3.9-2.2.9-.9 0-1.6-.3-2.2-.9-.5-.6-.8-1.6-.8-2.8zM471.7 209c3.1 0 5.8.6 8 1.9 2.2 1.3 3.9 3.1 5.1 5.4 1.1 2.3 1.7 5.1 1.7 8.2 0 2.3-.3 4.4-.9 6.3-.6 1.9-1.6 3.5-2.8 4.9-1.3 1.4-2.8 2.5-4.6 3.2-1.8.7-3.9 1.1-6.3 1.1-2.3 0-4.4-.4-6.3-1.1-1.9-.8-3.4-1.8-4.6-3.2-1.2-1.4-2.2-3-2.8-5-.6-1.9-.9-4-.9-6.3s.3-4.4 1-6.3c.7-1.9 1.6-3.6 2.9-4.9 1.3-1.3 2.8-2.4 4.6-3.1 1.5-.7 3.6-1.1 5.9-1.1zm8.6 15.4c0-2.2-.4-4.1-1.1-5.7-.7-1.6-1.7-2.8-3-3.6-1.3-.8-2.8-1.2-4.5-1.2-1.2 0-2.3.2-3.4.7-1 .5-1.9 1.1-2.7 2-.7.9-1.3 2-1.8 3.3-.4 1.4-.6 2.9-.6 4.6 0 1.7.2 3.2.6 4.6.4 1.4 1 2.5 1.8 3.4.8.9 1.7 1.6 2.7 2 1 .4 2.1.7 3.3.7 1.6 0 3-.4 4.3-1.2 1.3-.8 2.3-2 3.1-3.6.9-1.6 1.3-3.6 1.3-6zM530.6 212.7l11.7 17.7v-17.8c0-1.2.2-2 .7-2.6.5-.6 1.2-.9 2-.9.9 0 1.6.3 2.1.9.5.6.8 1.4.8 2.6v23.6c0 2.6-1.1 3.9-3.3 3.9-.5 0-1-.1-1.5-.2-.4-.2-.8-.4-1.2-.7-.4-.3-.7-.7-1.1-1.2-.3-.5-.7-.9-1-1.4L528.5 219v17.6c0 1.1-.3 2-.8 2.6-.5.6-1.2.9-2 .9-.9 0-1.5-.3-2.1-.9-.5-.6-.8-1.5-.8-2.6v-23.1c0-1 .1-1.8.3-2.3.3-.6.7-1.1 1.3-1.5.6-.4 1.2-.6 1.9-.6.5 0 1 .1 1.4.3.4.2.7.4 1 .7.3.3.6.7.9 1.2.4.3.7.8 1 1.4zM650.1 230.5c0 1.8-.5 3.4-1.4 4.9-.9 1.4-2.3 2.6-4.1 3.4s-3.9 1.2-6.4 1.2c-3 0-5.4-.6-7.3-1.7-1.4-.8-2.5-1.9-3.3-3.2-.9-1.3-1.3-2.6-1.3-3.9 0-.7.3-1.4.8-1.9s1.2-.8 2-.8c.6 0 1.2.2 1.6.6s.8 1 1.1 1.8c.4 1 .8 1.8 1.2 2.4.4.6 1.1 1.2 1.9 1.6.8.4 1.9.6 3.2.6 1.8 0 3.3-.4 4.4-1.3 1.1-.8 1.7-1.9 1.7-3.1 0-1-.3-1.8-.9-2.4-.6-.6-1.4-1.1-2.3-1.4-1-.3-2.2-.7-3.9-1-2.2-.5-4-1.1-5.4-1.8-1.5-.7-2.6-1.6-3.5-2.8-.9-1.2-1.3-2.6-1.3-4.3 0-1.6.4-3.1 1.3-4.4.9-1.3 2.2-2.3 3.9-3s3.7-1 6-1c1.8 0 3.4.2 4.8.7 1.3.5 2.5 1.1 3.3 1.8.9.8 1.5 1.6 1.9 2.4.4.8.6 1.6.6 2.4 0 .7-.3 1.4-.8 2-.5.6-1.2.9-1.9.9s-1.2-.2-1.6-.5c-.4-.3-.8-.9-1.2-1.7-.5-1.1-1.2-2-2-2.6-.8-.6-2-.9-3.7-.9-1.6 0-2.8.3-3.8 1s-1.4 1.5-1.4 2.5c0 .6.2 1.1.5 1.6.3.4.8.8 1.3 1.1.6.3 1.2.6 1.7.7.6.2 1.6.4 2.9.8 1.7.4 3.2.8 4.6 1.3 1.4.5 2.5 1.1 3.5 1.7 1 .7 1.7 1.5 2.2 2.6.8.9 1.1 2.2 1.1 3.7zM706 214.2h-13.7v7.4h12.6c.9 0 1.6.2 2.1.6.5.4.7 1 .7 1.6 0 .7-.2 1.2-.7 1.7-.5.4-1.1.6-2.1.6h-12.6v8.5h14.1c1 0 1.7.2 2.2.7.5.4.7 1 .7 1.8 0 .7-.2 1.3-.7 1.7-.5.4-1.2.7-2.2.7H690c-1.3 0-2.3-.3-2.9-.9-.6-.6-.9-1.5-.9-2.8v-22.5c0-.9.1-1.6.4-2.1.3-.6.7-1 1.2-1.2.6-.3 1.3-.4 2.1-.4h16c1 0 1.7.2 2.2.6.5.4.7 1 .7 1.7s-.2 1.3-.7 1.7c-.4.4-1.1.6-2.1.6zM753.1 226.7H751v9.6c0 1.3-.3 2.2-.8 2.8-.6.6-1.3.9-2.2.9-1 0-1.7-.3-2.2-.9-.5-.6-.8-1.5-.8-2.8v-23c0-1.3.3-2.3.9-2.8.6-.6 1.5-.9 2.8-.9h9.9c1.4 0 2.5.1 3.5.2s1.8.4 2.6.7c.9.4 1.8 1 2.5 1.7s1.3 1.6 1.6 2.6c.4 1 .6 2 .6 3.1 0 2.2-.6 4-1.9 5.4-1.3 1.3-3.2 2.3-5.7 2.8 1.1.6 2.1 1.4 3.1 2.5s1.9 2.3 2.6 3.6c.8 1.3 1.4 2.4 1.8 3.4.4 1 .6 1.7.6 2.1 0 .4-.1.8-.4 1.2-.3.4-.6.7-1 .9-.4.2-.9.3-1.5.3-.7 0-1.3-.2-1.7-.5-.5-.3-.9-.7-1.2-1.2-.3-.5-.8-1.2-1.4-2.2l-2.4-4c-.9-1.5-1.7-2.6-2.3-3.4-.7-.8-1.4-1.3-2.1-1.6-.8-.4-1.7-.5-2.8-.5zm3.5-12.6H751v8.2h5.4c1.5 0 2.7-.1 3.7-.4 1-.3 1.8-.7 2.3-1.3.5-.6.8-1.4.8-2.5 0-.8-.2-1.6-.6-2.2-.4-.6-1-1.1-1.8-1.4-.7-.3-2.1-.4-4.2-.4zM810.2 213l6.8 20.1 6.8-20.2c.4-1.1.6-1.8.8-2.2.2-.4.5-.8.9-1.1.4-.3 1-.5 1.7-.5.5 0 1 .1 1.4.4.4.3.8.6 1 1 .3.4.4.9.4 1.3 0 .3 0 .6-.1 1s-.2.7-.3 1-.2.7-.4 1l-7.3 19.6c-.3.7-.5 1.5-.8 2.1-.3.7-.6 1.3-.9 1.8-.3.5-.8.9-1.4 1.3-.6.3-1.3.5-2.1.5s-1.5-.2-2.1-.5c-.6-.3-1-.7-1.4-1.3-.3-.5-.6-1.1-.9-1.8-.3-.7-.5-1.4-.8-2.1l-7.1-19.4c-.1-.4-.2-.7-.4-1-.1-.3-.2-.7-.3-1.1-.1-.4-.1-.7-.1-1 0-.7.3-1.3.8-1.9.6-.6 1.3-.9 2.1-.9 1 0 1.8.3 2.2 1 .6.5 1 1.5 1.5 2.9zM865.4 236.3v-23.6c0-1.2.3-2.1.8-2.8.6-.6 1.3-.9 2.2-.9.9 0 1.7.3 2.2.9.6.6.8 1.5.8 2.8v23.6c0 1.2-.3 2.2-.8 2.8-.6.6-1.3.9-2.2.9-.9 0-1.6-.3-2.2-.9-.5-.6-.8-1.6-.8-2.8zM934.7 230c0 1-.2 2-.7 3.1-.5 1.1-1.2 2.2-2.2 3.3-1 1.1-2.3 1.9-3.9 2.6-1.6.7-3.4 1-5.5 1-1.6 0-3-.1-4.3-.5-1.3-.3-2.5-.8-3.5-1.4-1.1-.6-2-1.5-2.9-2.5-.8-.9-1.5-2-2-3.2s-1-2.4-1.3-3.7c-.3-1.3-.4-2.7-.4-4.2 0-2.4.3-4.6 1.1-6.5.7-1.9 1.7-3.5 3-4.9 1.3-1.4 2.8-2.4 4.6-3.1 1.8-.7 3.6-1.1 5.6-1.1 2.4 0 4.6.5 6.5 1.5 1.9 1 3.3 2.2 4.4 3.6 1 1.4 1.5 2.8 1.5 4 0 .7-.2 1.3-.7 1.8-.5.5-1.1.8-1.8.8-.8 0-1.4-.2-1.7-.6-.4-.4-.8-1-1.3-1.9-.8-1.5-1.7-2.6-2.8-3.3-1.1-.7-2.4-1.1-4-1.1-2.5 0-4.5.9-6 2.8s-2.2 4.6-2.2 8.1c0 2.3.3 4.3 1 5.8s1.6 2.7 2.8 3.5c1.2.8 2.6 1.1 4.2 1.1 1.7 0 3.2-.4 4.4-1.3 1.2-.9 2.1-2.1 2.7-3.8.3-.8.6-1.4 1-1.9s1-.7 1.8-.7c.7 0 1.3.3 1.9.8.4.6.7 1.2.7 1.9zM990.8 214.2h-13.7v7.4h12.6c.9 0 1.6.2 2.1.6.5.4.7 1 .7 1.6 0 .7-.2 1.2-.7 1.7-.5.4-1.1.6-2.1.6h-12.6v8.5h14.1c1 0 1.7.2 2.2.7.5.4.7 1 .7 1.8 0 .7-.2 1.3-.7 1.7s-1.2.7-2.2.7h-16.5c-1.3 0-2.3-.3-2.9-.9-.6-.6-.9-1.5-.9-2.8v-22.5c0-.9.1-1.6.4-2.1.3-.6.7-1 1.2-1.2.6-.3 1.3-.4 2.1-.4h16c1 0 1.7.2 2.2.6.5.4.7 1 .7 1.7s-.2 1.3-.7 1.7c-.3.4-1 .6-2 .6z" class="st0"/></g></svg>