<?xml version="1.0" encoding="UTF-8" standalone="no"?>
<!-- Created with Inkscape (http://www.inkscape.org/) -->

<svg
   xmlns:dc="http://purl.org/dc/elements/1.1/"
   xmlns:cc="http://creativecommons.org/ns#"
   xmlns:rdf="http://www.w3.org/1999/02/22-rdf-syntax-ns#"
   xmlns:svg="http://www.w3.org/2000/svg"
   xmlns="http://www.w3.org/2000/svg"
   xmlns:sodipodi="http://sodipodi.sourceforge.net/DTD/sodipodi-0.dtd"
   xmlns:inkscape="http://www.inkscape.org/namespaces/inkscape"
   width="264.6586mm"
   height="56.506813mm"
   viewBox="0 0 264.6586 56.506813"
   version="1.1"
   id="svg8"
   inkscape:version="0.92.1 r15371"
   sodipodi:docname="Timetastic.svg">
  <defs
     id="defs2">
    <clipPath
       id="clipPath4501"
       clipPathUnits="userSpaceOnUse">
      <path
         inkscape:connector-curvature="0"
         id="path4499"
         d="M 0,800 H 1280 V 0 H 0 Z" />
    </clipPath>
  </defs>
  <sodipodi:namedview
     id="base"
     pagecolor="#ffffff"
     bordercolor="#666666"
     borderopacity="1.0"
     inkscape:pageopacity="0.0"
     inkscape:pageshadow="2"
     inkscape:zoom="0.35"
     inkscape:cx="84.427981"
     inkscape:cy="-161.78689"
     inkscape:document-units="mm"
     inkscape:current-layer="layer1"
     showgrid="false"
     inkscape:window-width="1718"
     inkscape:window-height="1368"
     inkscape:window-x="-7"
     inkscape:window-y="0"
     inkscape:window-maximized="0" />
  <metadata
     id="metadata5">
    <rdf:RDF>
      <cc:Work
         rdf:about="">
        <dc:format>image/svg+xml</dc:format>
        <dc:type
           rdf:resource="http://purl.org/dc/dcmitype/StillImage" />
        <dc:title></dc:title>
      </cc:Work>
    </rdf:RDF>
  </metadata>
  <g
     inkscape:label="Layer 1"
     inkscape:groupmode="layer"
     id="layer1"
     transform="translate(45.394784,-49.520404)">
    <g
       transform="matrix(0.35277777,0,0,-0.35277777,-144.9492,227.84431)"
       inkscape:label="Timetastic_logo_CMYK_Navy"
       id="g4493">
      <g
         id="g4495">
        <g
           clip-path="url(#clipPath4501)"
           id="g4497">
          <g
             transform="translate(390.8193,361.6836)"
             id="g4503">
            <path
               inkscape:connector-curvature="0"
               id="path4505"
               style="fill:#1d3058;fill-opacity:1;fill-rule:nonzero;stroke:none"
               d="m 0,0 c -4.817,-6.346 -9.633,-9.628 -14.666,-9.626 -5.908,10e-4 -15.099,6.13 -21.006,14.01 -2.406,3.503 -3.5,8.536 -3.5,14.883 0.002,5.689 1.098,13.787 3.289,24.291 2.19,10.285 1.945,11.772 4.355,19.431 2.409,8.533 4.38,14.224 5.473,16.631 3.94,0 8.537,-0.877 13.787,-2.41 5.033,-1.752 7.659,-3.722 7.659,-5.691 0.656,-1.751 -2.382,-3.456 -8.076,-24.683 -4.161,-15.318 -6.134,-26.917 -6.136,-34.796 -0.877,-16.414 10.944,-6.13 20.356,8.969 4.16,7.221 7.662,14.224 10.509,21.008 0.657,1.75 1.752,2.626 2.845,2.626 1.533,-10e-4 3.502,-2.409 3.5,-4.816 0,-1.313 -0.436,-3.063 -1.313,-5.252 C 10.289,17.943 4.597,6.347 0,0" />
          </g>
          <g
             transform="translate(524.9678,363.8477)"
             id="g4507">
            <path
               inkscape:connector-curvature="0"
               id="path4509"
               style="fill:#1d3058;fill-opacity:1;fill-rule:nonzero;stroke:none"
               d="m 0,0 c -5.91,-8.097 -11.82,-12.254 -17.291,-12.253 -2.845,0 -8.097,5.034 -12.034,7.006 -5.47,2.626 -8.097,6.566 -8.095,12.037 0.001,8.754 1.972,19.259 5.913,31.514 0.878,3.719 3.724,10.721 3.724,11.16 l -0.438,0.219 c -1.97,-1.094 -5.035,-4.376 -9.193,-9.409 -4.159,-5.252 -7.881,-10.722 -11.164,-16.193 -3.284,-5.688 -6.131,-11.816 -8.757,-18.6 -2.628,-6.784 -4.162,-11.379 -4.819,-14.224 -0.22,-2.845 -2.627,-3.282 -10.285,0.878 -6.347,3.283 -9.409,6.566 -9.409,10.068 0.003,8.973 1.754,20.571 5.26,34.795 1.095,4.158 3.065,12.037 5.912,23.417 l -0.657,0.437 c -7.223,-8.096 -14.227,-18.599 -21.014,-31.51 -0.875,-1.969 -4.816,-9.409 -5.692,-11.378 -0.658,-1.095 -1.315,-2.627 -2.409,-5.033 -2.845,-6.346 -3.942,-10.286 -5.474,-18.164 0,-3.283 -0.878,-6.566 -2.846,-6.566 -1.533,10e-4 -4.378,0.877 -8.534,2.848 -4.158,1.971 -7.004,3.722 -8.315,5.254 -1.095,1.094 -1.533,3.283 -1.533,6.565 0.002,0.656 0.44,5.472 1.535,14.662 1.097,9.63 3.288,21.448 6.572,35.234 3.286,13.787 6.353,24.947 9.418,33.7 3.937,0 8.316,-0.877 13.13,-2.628 4.813,-1.752 7.222,-3.503 7.222,-5.254 0,-0.657 -2.628,-9.191 -8.103,-25.822 -3.066,-9.848 -5.256,-18.601 -6.789,-26.48 l 0.657,-0.218 c 6.348,13.348 14.229,27.353 23.206,42.452 8.098,13.347 15.322,19.911 21.886,19.911 3.284,-10e-4 7.004,-1.097 10.725,-3.285 3.72,-2.189 5.687,-4.16 6.345,-5.692 -0.658,-1.751 -3.503,-8.753 -7.664,-21.007 -7.225,-20.352 -11.386,-32.826 -12.262,-37.859 l 0.656,-0.219 c 8.1,14.443 16.2,27.353 24.518,38.513 7.662,10.503 13.571,15.755 17.51,15.754 4.159,-10e-4 8.317,-1.096 12.474,-3.067 3.939,-2.189 6.126,-4.16 6.783,-5.91 C 0.012,63.684 -4.585,52.961 -9.62,39.83 -14.656,25.607 -17.285,15.104 -17.287,7.881 c 0,-2.845 0.657,-4.377 2.188,-4.378 6.347,-0.001 17.728,13.129 26.268,32.604 1.752,4.158 3.284,6.346 4.597,6.345 2.407,0 3.501,-1.532 3.499,-4.377 0,-1.532 -1.312,-5.253 -3.721,-10.941 C 11.165,17.286 5.911,8.096 0,0" />
          </g>
          <g
             transform="translate(613.6099,406.2861)"
             id="g4511">
            <path
               inkscape:connector-curvature="0"
               id="path4513"
               style="fill:#1d3058;fill-opacity:1;fill-rule:nonzero;stroke:none"
               d="m 0,0 c 1.75,0 3.501,-2.407 3.5,-5.253 0,-1.095 -0.219,-2.187 -0.658,-3.282 -14.011,-35.013 -30.647,-47.486 -45.748,-47.482 -4.814,0.001 -10.067,1.753 -15.755,5.255 -12.036,7.662 -18.162,18.606 -18.159,32.393 0.004,16.195 3.507,31.076 10.295,44.425 6.787,13.348 15.103,20.131 25.171,20.129 5.909,-0.001 10.943,-3.067 12.692,-4.817 0.877,-0.876 2.625,-2.628 5.032,-5.473 6.346,-3.94 9.629,-8.974 9.628,-14.883 -10e-4,-9.191 -4.601,-18.382 -13.793,-27.79 -9.193,-9.409 -17.292,-14.004 -24.514,-14.002 -1.97,0.001 -3.72,0.218 -4.814,0.438 v -2.188 c -0.003,-13.787 4.81,-20.574 14.439,-20.574 8.753,-0.002 22.761,9.187 31.3,23.41 3.502,5.909 6.13,11.379 8.099,15.974 C -2.19,-1.312 -1.094,0 0,0 m -33.697,30.207 c -4.159,10e-4 -8.756,-4.375 -13.572,-13.347 -4.815,-8.971 -7.881,-19.038 -9.197,-30.199 5.034,1.093 11.382,7.439 14.009,10.94 1.313,1.751 3.064,4.376 5.473,7.878 4.816,7.659 7.224,14.004 7.224,19.256 0.002,3.721 -1.312,5.472 -3.937,5.472" />
          </g>
          <g
             transform="translate(670.0713,401.4609)"
             id="g4515">
            <path
               inkscape:connector-curvature="0"
               id="path4517"
               style="fill:#1d3058;fill-opacity:1;fill-rule:nonzero;stroke:none"
               d="m 0,0 c 0,-1.313 -0.219,-2.626 -0.876,-3.72 -12.918,-32.606 -26.052,-47.485 -35.025,-47.484 -5.033,10e-4 -10.94,3.066 -17.287,9.195 -6.564,5.91 -9.846,11.601 -9.845,16.635 0.003,14.443 4.604,37.859 13.799,70.247 l -8.096,0.001 c -3.501,10e-4 -5.69,5.254 -5.688,10.506 0,0.875 0.219,1.97 0.438,3.063 l 17.071,-0.221 c 5.037,15.975 8.759,26.042 10.948,30.636 0.875,0.219 2.189,0.218 3.721,0.218 9.628,-10e-4 17.506,-3.286 17.506,-6.568 0,-0.656 -1.314,-3.94 -3.723,-10.285 -1.532,-3.94 -3.284,-8.754 -5.255,-14.224 4.596,-0.002 9.629,0.216 14.882,0.435 3.283,0.217 5.689,-5.254 5.688,-10.506 0,-0.876 -0.219,-1.97 -0.438,-3.065 l -24.292,0.006 c -10.73,-34.139 -15.988,-59.086 -15.99,-74.624 -0.002,-4.814 -0.002,-8.099 3.282,-8.099 5.251,0 15.322,7.22 23.201,20.569 3.503,5.907 6.568,12.034 8.975,18.381 C -4.595,8.317 -0.437,3.721 0,0" />
          </g>
          <g
             transform="translate(707.2715,384.6025)"
             id="g4519">
            <path
               inkscape:connector-curvature="0"
               id="path4521"
               style="fill:#1d3058;fill-opacity:1;fill-rule:nonzero;stroke:none"
               d="m 0,0 c -9.415,-22.539 -18.172,-33.699 -25.831,-33.697 -4.158,0.001 -8.534,2.628 -13.129,7.881 -4.814,5.253 -7.001,13.35 -6.998,24.512 0.002,17.508 5.479,40.485 16.863,56.678 5.472,8.096 11.6,12.034 17.946,12.033 6.784,-0.002 12.913,-2.629 16.414,-5.036 1.75,-1.314 5.032,-3.941 10.064,-7.663 1.095,0.22 2.408,0.438 3.721,0.438 7.66,-10e-4 13.13,-2.191 16.193,-6.788 0,-0.218 -4.816,-11.379 -7.664,-19.913 -5.474,-16.413 -8.321,-29.761 -8.323,-40.266 0,-5.252 1.092,-7.879 3.281,-7.88 3.72,0 7.88,4.157 12.695,12.691 4.818,8.534 8.757,16.85 11.823,25.384 0.876,2.188 1.97,3.282 3.283,3.282 1.752,0 3.503,-2.407 3.501,-5.253 0,-0.875 -1.094,-3.939 -3.065,-9.191 -10.729,-27.354 -19.923,-40.92 -28.021,-40.919 -2.407,10e-4 -5.908,1.314 -10.504,3.941 -5.689,3.285 -9.189,6.129 -10.721,8.975 -1.313,2.408 -1.968,5.253 -1.968,8.755 0,2.407 0.439,6.347 1.096,11.817 z m -23.201,-17.284 c 3.284,-0.001 8.097,5.251 14.009,15.535 5.911,10.284 11.165,22.32 15.765,36.106 l 2.407,8.754 c -1.53,5.909 -4.375,8.973 -8.095,8.974 -5.69,0.002 -11.601,-7.22 -17.731,-21.443 -6.131,-14.224 -9.197,-27.573 -9.199,-40.047 -10e-4,-5.252 0.875,-7.879 2.844,-7.879" />
          </g>
          <g
             transform="translate(824.1357,402.9629)"
             id="g4523">
            <path
               inkscape:connector-curvature="0"
               id="path4525"
               style="fill:#1d3058;fill-opacity:1;fill-rule:nonzero;stroke:none"
               d="m 0,0 c 2.626,-1.094 3.938,-3.721 3.938,-8.316 0,-3.502 -1.097,-6.127 -2.189,-5.471 -4.815,2.408 -10.287,3.723 -16.195,3.724 -3.283,0 -7.441,-0.437 -12.912,-1.53 1.968,-6.785 2.842,-12.694 2.841,-17.727 0,-5.252 -2.189,-10.723 -6.349,-16.194 -4.379,-5.47 -9.63,-8.314 -15.759,-8.313 -5.034,10e-4 -9.849,2.409 -14.88,7.006 -5.032,4.596 -7.439,9.412 -7.437,14.446 10e-4,7.658 7.004,14.88 20.795,21.661 -0.658,1.752 -3.939,9.63 -9.626,23.638 -3.066,-9.41 -4.818,-14.881 -5.475,-16.412 -0.875,-2.189 -1.97,-3.283 -3.501,-3.283 -2.189,0 -3.282,1.533 -3.282,4.596 0,1.095 0.436,2.408 1.094,4.376 1.75,3.722 4.378,11.38 8.102,23.197 v 0.876 c 0.002,13.13 4.163,21.884 9.195,24.289 1.535,0.657 2.847,0.876 4.161,0.876 2.407,-10e-4 4.595,-0.658 7.001,-1.752 3.722,-1.751 7.002,-4.378 10.067,-7.88 -5.253,-4.595 -7.881,-10.504 -7.882,-17.726 -10e-4,-3.721 1.093,-7.223 3.718,-14.007 1.31,-3.502 2.406,-6.346 3.06,-8.755 0.438,-1.312 1.313,-4.157 1.75,-5.253 10.286,3.063 18.604,4.593 24.951,4.591 C -2.845,0.657 -1.093,0.438 0,0 m -52.531,-42.227 c 4.378,-0.002 9.412,6.564 9.412,13.567 0.002,2.407 -0.655,5.909 -1.747,10.505 -8.32,-5.032 -12.479,-11.159 -12.48,-18.162 0,-3.94 1.533,-5.909 4.815,-5.91" />
          </g>
          <g
             transform="translate(877.0937,401.4219)"
             id="g4527">
            <path
               inkscape:connector-curvature="0"
               id="path4529"
               style="fill:#1d3058;fill-opacity:1;fill-rule:nonzero;stroke:none"
               d="m 0,0 c 0,-1.313 -0.219,-2.627 -0.876,-3.721 -12.918,-32.605 -26.052,-47.484 -35.023,-47.483 -5.035,10e-4 -10.942,3.066 -17.288,9.195 -6.565,5.91 -9.846,11.601 -9.845,16.635 0.003,14.443 4.603,37.859 13.8,70.246 l -8.096,0.002 c -3.503,10e-4 -5.69,5.254 -5.69,10.506 0,0.875 0.219,1.97 0.44,3.063 l 17.069,-0.221 c 5.038,15.975 8.76,26.042 10.949,30.636 0.875,0.218 2.189,0.218 3.72,0.218 9.629,-10e-4 17.506,-3.286 17.506,-6.568 0,-0.656 -1.313,-3.94 -3.723,-10.285 -1.532,-3.94 -3.283,-8.754 -5.255,-14.225 4.597,-10e-4 9.63,0.218 14.883,0.436 3.283,0.217 5.69,-5.254 5.688,-10.506 0,-0.876 -0.22,-1.97 -0.439,-3.065 l -24.292,0.005 C -37.2,10.73 -42.459,-14.218 -42.462,-29.755 c -10e-4,-4.815 -10e-4,-8.098 3.282,-8.099 5.251,0 15.322,7.219 23.201,20.568 3.504,5.908 6.569,12.035 8.975,18.381 C -4.595,8.316 -0.437,3.72 0,0" />
          </g>
          <g
             transform="translate(907.0693,361.585)"
             id="g4531">
            <path
               inkscape:connector-curvature="0"
               id="path4533"
               style="fill:#1d3058;fill-opacity:1;fill-rule:nonzero;stroke:none"
               d="m 0,0 c -4.817,-6.345 -9.634,-9.627 -14.667,-9.626 -5.908,10e-4 -15.099,6.131 -21.005,14.011 -2.406,3.502 -3.5,8.536 -3.5,14.882 10e-4,5.69 1.098,13.787 3.288,24.292 2.19,10.285 4.38,19.476 6.791,27.134 2.408,8.536 4.379,14.225 5.473,16.632 3.939,-0.001 8.536,-0.878 13.787,-2.41 5.031,-1.752 7.658,-3.722 7.658,-5.691 0.655,-1.751 -4.816,-11.161 -10.511,-32.388 -4.161,-15.318 -6.133,-26.917 -6.135,-34.795 -0.877,-16.414 10.944,-6.13 20.356,8.969 4.159,7.221 7.663,14.223 10.509,21.007 0.657,1.751 1.751,2.627 2.845,2.626 1.533,0 3.502,-2.408 3.5,-4.816 0,-1.313 -0.436,-3.063 -1.313,-5.252 C 10.289,17.944 4.596,6.347 0,0 m 8.336,111.611 c -3.94,-4.157 -8.099,-6.344 -12.476,-6.343 -5.908,0 -9.629,3.94 -9.628,10.724 0,4.596 1.753,9.192 5.039,13.568 3.282,4.377 7.223,6.564 11.818,6.563 7.004,-0.002 11.16,-5.255 11.158,-11.601 -10e-4,-4.376 -1.971,-8.753 -5.911,-12.911" />
          </g>
          <g
             transform="translate(977.5332,362.2285)"
             id="g4535">
            <path
               inkscape:connector-curvature="0"
               id="path4537"
               style="fill:#1d3058;fill-opacity:1;fill-rule:nonzero;stroke:none"
               d="m 0,0 c -7.66,-8.095 -15.32,-12.033 -22.98,-12.032 -7.223,0.002 -15.102,3.942 -23.634,12.042 -8.533,8.098 -12.691,16.852 -12.69,26.261 0.004,17.292 3.948,31.953 11.61,44.426 7.661,12.473 16.197,18.599 26.045,18.597 5.47,-10e-4 10.942,-3.066 12.694,-4.599 l 5.031,-5.034 C 3.297,75.939 7.018,71.343 7.016,65.872 7.015,62.589 5.263,58.431 1.541,52.961 -2.181,47.49 -5.9,43.114 -9.842,40.27 c -2.187,-1.75 -4.376,-2.625 -6.345,-2.625 -1.094,10e-4 -1.75,0.219 -2.188,0.876 -2.408,1.094 10.07,20.351 9.634,30.417 10e-4,3.284 -1.094,4.816 -3.5,4.816 -5.473,0.002 -11.382,-5.469 -17.511,-16.191 -6.35,-10.723 -9.417,-23.853 -9.419,-39.391 -0.002,-11.599 4.595,-17.29 13.567,-17.292 9.628,-0.001 22.76,8.531 31.517,22.317 3.941,6.346 7.005,12.254 9.194,17.725 0.659,1.969 1.752,3.063 2.846,3.063 1.971,-10e-4 3.721,-2.627 3.72,-5.034 0,-1.313 -1.095,-4.377 -3.066,-9.191 C 13.79,17.725 7.66,7.877 0,0" />
          </g>
          <g
             transform="translate(294.0205,503.0781)"
             id="g4539">
            <path
               inkscape:connector-curvature="0"
               id="path4541"
               style="fill:#1d3058;fill-opacity:1;fill-rule:nonzero;stroke:none"
               d="m 0,0 c 35.234,0 65.217,0.875 89.727,2.407 2.845,-2.407 4.158,-6.784 4.158,-13.349 0,-3.502 -0.656,-5.252 -1.75,-5.252 -15.757,0.217 -29.325,0.437 -40.925,0.437 -11.379,-44.645 -19.696,-85.788 -25.168,-123.211 -0.656,-3.939 -0.656,-4.595 -1.75,-6.128 -0.657,-0.218 -1.532,-0.656 -3.283,-0.656 -6.783,0 -12.911,1.97 -18.821,5.69 3.284,18.165 12.257,59.746 26.48,124.524 H -5.471 c -2.627,1.531 -6.348,9.41 -6.348,13.131 0,1.532 0.658,2.407 1.752,2.407 z" />
          </g>
          <g
             transform="translate(393.8965,453.7344)"
             id="g4543">
            <path
               inkscape:connector-curvature="0"
               id="path4545"
               style="fill:#1d3058;fill-opacity:1;fill-rule:nonzero;stroke:none"
               d="m 0,0 c -3.94,-4.156 -8.1,-6.345 -12.476,-6.344 -5.908,0.002 -9.627,3.942 -9.625,10.726 0,4.596 1.752,9.19 5.037,13.566 3.282,4.377 7.222,6.565 11.818,6.564 C 1.758,24.51 5.914,19.258 5.913,12.911 5.911,8.535 3.941,4.158 0,0" />
          </g>
          <g
             transform="translate(1026.5039,351.6523)"
             id="g4547">
            <path
               inkscape:connector-curvature="0"
               id="path4549"
               style="fill:#e60060;fill-opacity:1;fill-rule:nonzero;stroke:none"
               d="m 0,0 c -3.938,-4.157 -8.098,-6.345 -12.475,-6.344 -5.909,0.001 -9.629,3.941 -9.628,10.725 0,4.596 1.753,9.191 5.039,13.568 3.281,4.376 7.222,6.564 11.817,6.563 C 1.757,24.51 5.913,19.257 5.911,12.911 5.91,8.534 3.941,4.157 0,0" />
          </g>
        </g>
      </g>
    </g>
  </g>
</svg>
