<svg version="1.1" xmlns="http://www.w3.org/2000/svg" xmlns:xlink="http://www.w3.org/1999/xlink" x="0px" y="0px" width="200px"
	 viewBox="0 398.3 199.9 45.3" enable-background="new 0 398.3 199.9 45.3" xml:space="preserve">
<g id="Wordmark" class="svg-logo-text">
	<path fill="#333333" d="M67.7,413.9h-4.1v16.4h-3.5v-16.4H56v-3.4h11.7C67.7,410.5,67.7,413.9,67.7,413.9z"/>
	<path fill="#333333" d="M75.9,430.2h-3.5v-19.7h3.5V430.2z"/>
	<path fill="#333333" d="M96.1,430.2h-3.2v-6.4c0-2,0-4.1,0.1-6c-0.5,2-1.1,3.9-1.8,5.8l-2.3,7l-2.3-7c-0.6-1.9-1.2-3.9-1.8-5.8
		c0,2,0,3.9,0,6v6.4h-3.2v-19.7h3.6l2.3,7.3c0.4,1.2,0.8,2.7,1.3,4.5c0.1-0.5,0.5-2,1.3-4.5l2.3-7.3h3.5L96.1,430.2L96.1,430.2z"/>
	<path fill="#333333" d="M112.2,430.2h-10.4v-19.7H112v3.4h-6.6v4.2h4.4v3.3h-4.4v5.5h6.9V430.2z"/>
	<path fill="#333333" d="M127.9,413.9h-4.1v16.4h-3.5v-16.4h-4.1v-3.4h11.7V413.9z"/>
	<path fill="#333333" d="M143.9,430.2h-3.6l-1-4.1h-4.4l-1,4.1h-3.6l5.1-19.7h3.5L143.9,430.2z M138.6,422.9l-0.5-2.3
		c-0.4-1.9-0.7-3.5-1-4.8c-0.2,1.3-0.5,2.8-0.9,4.8l-0.5,2.4L138.6,422.9L138.6,422.9z"/>
	<path fill="#333333" d="M159.2,424.9c0,1.7-0.5,3-1.6,4.1c-1.1,1.1-2.5,1.6-4.3,1.6c-2.3,0-4.2-1-5.9-3.1l2.4-2.6
		c1.2,1.5,2.4,2.3,3.6,2.3c1.5,0,2.2-0.7,2.2-2.1c0-1.1-1-2.2-3-3.2c-1.6-0.8-2.8-1.7-3.5-2.5c-0.8-1-1.3-2.3-1.3-3.8
		c0-1.5,0.5-2.7,1.5-3.8c1-1,2.4-1.5,4-1.5c2.1,0,3.9,1,5.4,2.8l-2.3,2.3c-0.6-0.7-1.1-1.1-1.5-1.4c-0.4-0.2-1-0.4-1.6-0.4
		c-0.5,0-1,0.2-1.4,0.5c-0.4,0.3-0.5,0.7-0.5,1.3c0,0.6,0.2,1.1,0.6,1.5c0.4,0.4,1.1,1,2.2,1.5c1.8,1,3,1.9,3.7,2.7
		C158.9,422.1,159.2,423.3,159.2,424.9z"/>
	<path fill="#333333" d="M174.4,413.9h-4.1v16.4h-3.5v-16.4h-4.1v-3.4h11.7L174.4,413.9L174.4,413.9z"/>
	<path fill="#333333" d="M182.7,430.2h-3.5v-19.7h3.5V430.2z"/>
	<path fill="#333333" d="M199.8,425.5c-1,3.4-2.9,5.1-5.7,5.1c-2.1,0-3.7-1-4.8-3c-1-1.8-1.5-4.2-1.5-7.2c0-3,0.5-5.4,1.6-7.3
		c1.1-2,2.8-3,4.9-3c2.9,0,4.7,1.7,5.6,5l-3.3,1.1c-0.2-1-0.5-1.6-0.9-2c-0.4-0.4-0.8-0.5-1.4-0.5c-1.8,0-2.8,2.2-2.8,6.6
		c0,4.5,1,6.7,2.9,6.7c0.6,0,1.1-0.2,1.5-0.6c0.4-0.4,0.7-1.1,1.1-2.2L199.8,425.5z"/>
</g>
<g id="Chair_Legs" class="svg-logo-chair-legs">
	<g>
		<rect x="10.2" y="439.9" fill="#333333" width="11" height="1.6"/>
		<rect x="11.4" y="431.9" fill="#333333" width="8.5" height="1.3"/>
		<rect x="14.9" y="432.9" fill="#333333" width="1.6" height="7.2"/>
	</g>
	<rect x="10.3" y="441.8" fill="#333333" width="1.4" height="1.8"/>
	<rect x="13.5" y="441.8" fill="#333333" width="1.4" height="1.8"/>
	<rect x="19.8" y="441.8" fill="#333333" width="1.4" height="1.8"/>
</g>
<g id="Harry" class="svg-logo-chair">
	<path fill="#862C50" d="M22.4,408.7l7.5,6.4l-5.6,6.4l-0.4,0.5v0.6v6.9H7.3v-6.9v-0.4l-0.2-0.4L2.2,413l7.9-4.2l1,1.7l-4.8,2.4
		l-1.4,0.7l0.7,1.4l2.2,4.4l0.5,0.9h1h12.6h0.7l0.5-0.5l3.3-3.7l1.1-1.2l-1.2-1.1l-4.5-4.2L22.4,408.7 M22,406.2l-2.4,3.6l5.5,5.1
		l-3.3,3.7H9.3l-2.2-4.4l6.3-3.2l-2.6-4.4L0,412.3l5.7,10.3v8.5h19.7v-8.5l6.6-7.6L22,406.2L22,406.2z"/>
	<g>
		<rect x="7.9" y="403.8" fill="#FFFFFF" width="16.8" height="14.2" class="svg-logo-face" />
		<path fill="#862C50" d="M24,402.5v-2.3h-2.2v-2h-7v2H9.6v2.3H7.9v4.5H5.6v6.7h2.3v5.6h17.7v-16.8H24z M23.9,417.7H9.6v-4H7.9v-4.2
			h1.7v-5.4H24L23.9,417.7z"/>
	</g>
	<path fill="#862C50" d="M20.1,407.2v1.3h-2v-1.3h-4v1.3H9.1v1h5.1v1.8h4v-1.8h2v1.8h4v-4.2L20.1,407.2L20.1,407.2z M17,410.2h-1.8
		v-1.9H17V410.2z M23,410.2h-1.8v-1.9H23V410.2z"/>
	<g>
		<rect x="16.7" y="413.9" fill="#862C50" width="3.3" height="1.3"/>
		<rect x="15.8" y="413.3" fill="#862C50" width="1.7" height="1.3"/>
	</g>
	<rect x="7.1" y="427.7" fill="#862C50" width="17.6" height="2.4"/>
	<g>
		<polygon fill="#862C50" points="19.3,426.3 18.2,427.3 17.1,426.4 17.2,422.7 18.7,422.6 		"/>
		<polygon fill="#862C50" points="19,422.3 17,422.3 16.5,421.1 19.3,420.9 		"/>
	</g>
	<polygon fill="#862C50" points="29,422.3 21.8,422.3 21.8,426.3 16.4,426.3 16.4,422.3 9.4,422.3 9.4,431 29,431 	"/>
</g>
</svg>